<mxfile host="app.diagrams.net" modified="2023-11-14T19:55:53.191Z" agent="Mozilla/5.0 (Windows NT 10.0; Win64; x64) AppleWebKit/537.36 (KHTML, like Gecko) Chrome/119.0.0.0 Safari/537.36" etag="580rCL9cu3HrJz1z5sba" version="22.1.1" type="github">
  <diagram id="FLARmqn-sCxhorqhwDuB" name="Page-1">
    <mxGraphModel dx="1218" dy="530" grid="0" gridSize="10" guides="1" tooltips="1" connect="1" arrows="1" fold="1" page="1" pageScale="1" pageWidth="3300" pageHeight="4681" math="0" shadow="0">
      <root>
        <mxCell id="0" />
        <mxCell id="1" parent="0" />
        <mxCell id="HNuO8RR3fyhFZEDYtFWN-7" value="" style="whiteSpace=wrap;html=1;aspect=fixed;fillColor=#FFFF00;shadow=0;strokeColor=#000000;rounded=0;sketch=0;glass=0;strokeWidth=1;fillStyle=auto;perimeterSpacing=0;fontSize=20;" parent="1" vertex="1">
          <mxGeometry x="14" y="30.999999999999986" width="83.5" height="83.5" as="geometry" />
        </mxCell>
        <mxCell id="HNuO8RR3fyhFZEDYtFWN-8" value="" style="whiteSpace=wrap;html=1;aspect=fixed;fillColor=#FF0000;shadow=0;strokeColor=#000000;rounded=0;sketch=0;glass=0;strokeWidth=1;fillStyle=auto;perimeterSpacing=0;fontSize=20;" parent="1" vertex="1">
          <mxGeometry x="24" y="40.999999999999986" width="83.5" height="83.5" as="geometry" />
        </mxCell>
        <mxCell id="HNuO8RR3fyhFZEDYtFWN-9" value="" style="whiteSpace=wrap;html=1;aspect=fixed;fillColor=#FFFF00;shadow=0;strokeColor=#000000;rounded=0;sketch=0;glass=0;strokeWidth=1;fillStyle=auto;perimeterSpacing=0;fontSize=20;" parent="1" vertex="1">
          <mxGeometry x="33" y="49.999999999999986" width="83.5" height="83.5" as="geometry" />
        </mxCell>
        <mxCell id="HNuO8RR3fyhFZEDYtFWN-10" value="" style="whiteSpace=wrap;html=1;aspect=fixed;fillColor=#FF0000;shadow=0;strokeColor=#000000;rounded=0;sketch=0;glass=0;strokeWidth=1;fillStyle=auto;perimeterSpacing=0;fontSize=20;" parent="1" vertex="1">
          <mxGeometry x="42" y="59.999999999999986" width="83.5" height="83.5" as="geometry" />
        </mxCell>
        <mxCell id="HNuO8RR3fyhFZEDYtFWN-15" value="" style="whiteSpace=wrap;html=1;aspect=fixed;fillColor=#FFFF00;shadow=0;strokeColor=#000000;rounded=0;sketch=0;glass=0;strokeWidth=1;fillStyle=auto;perimeterSpacing=0;fontSize=20;" parent="1" vertex="1">
          <mxGeometry x="50" y="69.99999999999999" width="83.5" height="83.5" as="geometry" />
        </mxCell>
        <mxCell id="HNuO8RR3fyhFZEDYtFWN-16" value="" style="whiteSpace=wrap;html=1;aspect=fixed;fillColor=#FF0000;shadow=0;strokeColor=#000000;rounded=0;sketch=0;glass=0;strokeWidth=1;fillStyle=auto;perimeterSpacing=0;fontSize=20;flipH=0;flipV=1;rotation=0;container=0;" parent="1" vertex="1">
          <mxGeometry x="59" y="81.00000000000003" width="80" height="80" as="geometry" />
        </mxCell>
        <mxCell id="HNuO8RR3fyhFZEDYtFWN-76" value="" style="rounded=0;whiteSpace=wrap;html=1;shadow=0;glass=0;sketch=0;fillStyle=auto;strokeColor=#000000;strokeWidth=2;fillColor=#00FF00;gradientColor=none;direction=south;textDirection=ltr;horizontal=0;fontFamily=Times New Roman;fontSize=20;" parent="1" vertex="1">
          <mxGeometry x="660.64" y="7.730000000000189" width="46" height="208" as="geometry" />
        </mxCell>
        <mxCell id="HNuO8RR3fyhFZEDYtFWN-78" value="" style="ellipse;whiteSpace=wrap;html=1;aspect=fixed;rounded=0;shadow=0;glass=0;sketch=0;fillStyle=auto;strokeColor=#000000;strokeWidth=1;fontFamily=Times New Roman;fontSize=20;fillColor=#FFFFFF;gradientColor=none;" parent="1" vertex="1">
          <mxGeometry x="672.85" y="23.300000000000125" width="21.57" height="21.57" as="geometry" />
        </mxCell>
        <mxCell id="HNuO8RR3fyhFZEDYtFWN-92" value="Input Layers" style="text;html=1;strokeColor=none;fillColor=none;align=center;verticalAlign=middle;whiteSpace=wrap;rounded=0;shadow=0;glass=0;sketch=0;fillStyle=auto;strokeWidth=1;fontFamily=Times New Roman;fontSize=20;" parent="1" vertex="1">
          <mxGeometry x="19.620000000000005" y="171.86" width="110.25" height="30" as="geometry" />
        </mxCell>
        <mxCell id="HNuO8RR3fyhFZEDYtFWN-112" value="" style="ellipse;whiteSpace=wrap;html=1;aspect=fixed;rounded=0;shadow=0;glass=0;sketch=0;fillStyle=auto;strokeColor=#000000;strokeWidth=1;fontFamily=Times New Roman;fontSize=20;fillColor=#FFFFFF;gradientColor=none;" parent="1" vertex="1">
          <mxGeometry x="672.85" y="62.93000000000012" width="21.57" height="21.57" as="geometry" />
        </mxCell>
        <mxCell id="HNuO8RR3fyhFZEDYtFWN-113" value="" style="ellipse;whiteSpace=wrap;html=1;aspect=fixed;rounded=0;shadow=0;glass=0;sketch=0;fillStyle=auto;strokeColor=#000000;strokeWidth=1;fontFamily=Times New Roman;fontSize=20;fillColor=#FFFFFF;gradientColor=none;" parent="1" vertex="1">
          <mxGeometry x="672.85" y="98.73" width="24.34" height="24.34" as="geometry" />
        </mxCell>
        <mxCell id="HNuO8RR3fyhFZEDYtFWN-114" value="" style="ellipse;whiteSpace=wrap;html=1;aspect=fixed;rounded=0;shadow=0;glass=0;sketch=0;fillStyle=auto;strokeColor=#000000;strokeWidth=1;fontFamily=Times New Roman;fontSize=20;fillColor=#FFFFFF;gradientColor=none;" parent="1" vertex="1">
          <mxGeometry x="672.85" y="137.18000000000006" width="21.57" height="21.57" as="geometry" />
        </mxCell>
        <mxCell id="HNuO8RR3fyhFZEDYtFWN-115" value="" style="ellipse;whiteSpace=wrap;html=1;aspect=fixed;rounded=0;shadow=0;glass=0;sketch=0;fillStyle=auto;strokeColor=#000000;strokeWidth=1;fontFamily=Times New Roman;fontSize=20;fillColor=#FFFFFF;gradientColor=none;" parent="1" vertex="1">
          <mxGeometry x="672.85" y="174.11000000000013" width="21.57" height="21.57" as="geometry" />
        </mxCell>
        <mxCell id="HNuO8RR3fyhFZEDYtFWN-127" value="" style="endArrow=classic;html=1;rounded=0;strokeWidth=2;fontFamily=Times New Roman;fontSize=20;entryX=0;entryY=0.5;entryDx=0;entryDy=0;" parent="1" edge="1">
          <mxGeometry width="50" height="50" relative="1" as="geometry">
            <mxPoint x="706.64" y="100.77000000000015" as="sourcePoint" />
            <mxPoint x="776.6200000000014" y="100.35500000000091" as="targetPoint" />
          </mxGeometry>
        </mxCell>
        <mxCell id="HNuO8RR3fyhFZEDYtFWN-128" value="" style="endArrow=none;html=1;rounded=0;strokeWidth=2;fontFamily=Times New Roman;fontSize=20;exitX=0;exitY=0.5;exitDx=0;exitDy=0;" parent="1" edge="1">
          <mxGeometry width="50" height="50" relative="1" as="geometry">
            <mxPoint x="776.6200000000014" y="100.35500000000091" as="sourcePoint" />
            <mxPoint x="706.64" y="7.770000000000152" as="targetPoint" />
          </mxGeometry>
        </mxCell>
        <mxCell id="HNuO8RR3fyhFZEDYtFWN-133" value="" style="endArrow=none;html=1;rounded=0;strokeWidth=2;fontFamily=Times New Roman;fontSize=20;entryX=0;entryY=0.5;entryDx=0;entryDy=0;" parent="1" edge="1">
          <mxGeometry width="50" height="50" relative="1" as="geometry">
            <mxPoint x="706.64" y="215.7700000000002" as="sourcePoint" />
            <mxPoint x="776.6200000000014" y="100.35500000000091" as="targetPoint" />
          </mxGeometry>
        </mxCell>
        <mxCell id="HNuO8RR3fyhFZEDYtFWN-134" value="" style="endArrow=none;html=1;rounded=0;strokeWidth=2;fontFamily=Times New Roman;fontSize=20;entryX=0;entryY=0.5;entryDx=0;entryDy=0;" parent="1" edge="1">
          <mxGeometry width="50" height="50" relative="1" as="geometry">
            <mxPoint x="706.64" y="51.77000000000015" as="sourcePoint" />
            <mxPoint x="776.6200000000014" y="100.35500000000091" as="targetPoint" />
          </mxGeometry>
        </mxCell>
        <mxCell id="HNuO8RR3fyhFZEDYtFWN-135" value="" style="endArrow=none;html=1;rounded=0;strokeWidth=2;fontFamily=Times New Roman;fontSize=20;entryX=0;entryY=0.5;entryDx=0;entryDy=0;" parent="1" edge="1">
          <mxGeometry width="50" height="50" relative="1" as="geometry">
            <mxPoint x="706.64" y="164.7700000000002" as="sourcePoint" />
            <mxPoint x="776.6200000000014" y="100.35500000000091" as="targetPoint" />
          </mxGeometry>
        </mxCell>
        <mxCell id="HNuO8RR3fyhFZEDYtFWN-155" value="" style="endArrow=none;html=1;rounded=0;strokeWidth=2;fontFamily=Times New Roman;fontSize=20;fontColor=#000000;entryX=0;entryY=0.5;entryDx=0;entryDy=0;" parent="1" edge="1">
          <mxGeometry width="50" height="50" relative="1" as="geometry">
            <mxPoint x="706.64" y="130.77000000000015" as="sourcePoint" />
            <mxPoint x="776.6200000000014" y="100.35500000000091" as="targetPoint" />
          </mxGeometry>
        </mxCell>
        <mxCell id="HNuO8RR3fyhFZEDYtFWN-156" value="" style="endArrow=none;html=1;rounded=0;strokeWidth=2;fontFamily=Times New Roman;fontSize=20;fontColor=#000000;entryX=0;entryY=0.5;entryDx=0;entryDy=0;exitX=0.186;exitY=0.414;exitDx=0;exitDy=0;exitPerimeter=0;" parent="1" edge="1">
          <mxGeometry width="50" height="50" relative="1" as="geometry">
            <mxPoint x="706.4539999999998" y="75.83270000000022" as="sourcePoint" />
            <mxPoint x="776.6200000000014" y="100.35500000000091" as="targetPoint" />
          </mxGeometry>
        </mxCell>
        <mxCell id="L2ZbHlx48BQ5fT_40NmV-63" value="&lt;font style=&quot;font-size: 19px;&quot;&gt;Dense Layer (128 Units)&lt;/font&gt;" style="text;html=1;strokeColor=none;fillColor=none;align=center;verticalAlign=middle;whiteSpace=wrap;rounded=0;shadow=0;glass=0;sketch=0;fillStyle=auto;strokeWidth=1;fontFamily=Times New Roman;fontSize=20;horizontal=1;rotation=270;fontStyle=0" parent="1" vertex="1">
          <mxGeometry x="532.62" y="98.42999999999999" width="206.38" height="30" as="geometry" />
        </mxCell>
        <mxCell id="6pGJE98MVWuig045qVBl-20" style="edgeStyle=orthogonalEdgeStyle;rounded=0;orthogonalLoop=1;jettySize=auto;html=1;exitX=1;exitY=0.5;exitDx=0;exitDy=0;entryX=0.5;entryY=0;entryDx=0;entryDy=0;strokeWidth=3;" parent="1" source="Czk9K3e9gK6CF3bR32Vg-2" target="L2ZbHlx48BQ5fT_40NmV-63" edge="1">
          <mxGeometry relative="1" as="geometry" />
        </mxCell>
        <mxCell id="Czk9K3e9gK6CF3bR32Vg-2" value="&lt;font color=&quot;#ffffff&quot; style=&quot;font-size: 17px;&quot;&gt;Dropout Layer&lt;/font&gt;" style="rounded=1;whiteSpace=wrap;html=1;fillColor=#FF0000;strokeWidth=2;" parent="1" vertex="1">
          <mxGeometry x="446" y="90.17999999999999" width="140.38" height="47" as="geometry" />
        </mxCell>
        <mxCell id="6pGJE98MVWuig045qVBl-2" style="edgeStyle=orthogonalEdgeStyle;rounded=0;orthogonalLoop=1;jettySize=auto;html=1;exitX=1;exitY=0.5;exitDx=0;exitDy=0;strokeWidth=3;" parent="1" source="Czk9K3e9gK6CF3bR32Vg-3" target="Czk9K3e9gK6CF3bR32Vg-2" edge="1">
          <mxGeometry relative="1" as="geometry" />
        </mxCell>
        <mxCell id="Czk9K3e9gK6CF3bR32Vg-3" value="&lt;font color=&quot;#ffffff&quot; style=&quot;font-size: 17px;&quot;&gt;EfficientNet V2 B0 Layer&lt;/font&gt;" style="rounded=1;whiteSpace=wrap;html=1;rotation=0;horizontal=1;fillColor=#0000FF;strokeWidth=2;" parent="1" vertex="1">
          <mxGeometry x="181.12" y="89.67" width="226" height="47.51" as="geometry" />
        </mxCell>
        <mxCell id="6pGJE98MVWuig045qVBl-4" value="" style="rounded=0;whiteSpace=wrap;html=1;shadow=0;glass=0;sketch=0;fillStyle=auto;strokeColor=#000000;strokeWidth=2;fillColor=#00FF00;gradientColor=none;direction=south;textDirection=ltr;horizontal=0;fontFamily=Times New Roman;fontSize=20;" parent="1" vertex="1">
          <mxGeometry x="859.24" y="7.730000000000189" width="46" height="208" as="geometry" />
        </mxCell>
        <mxCell id="6pGJE98MVWuig045qVBl-5" value="" style="ellipse;whiteSpace=wrap;html=1;aspect=fixed;rounded=0;shadow=0;glass=0;sketch=0;fillStyle=auto;strokeColor=#000000;strokeWidth=1;fontFamily=Times New Roman;fontSize=20;fillColor=#FFFFFF;gradientColor=none;" parent="1" vertex="1">
          <mxGeometry x="871.45" y="23.300000000000125" width="21.57" height="21.57" as="geometry" />
        </mxCell>
        <mxCell id="6pGJE98MVWuig045qVBl-6" value="" style="ellipse;whiteSpace=wrap;html=1;aspect=fixed;rounded=0;shadow=0;glass=0;sketch=0;fillStyle=auto;strokeColor=#000000;strokeWidth=1;fontFamily=Times New Roman;fontSize=20;fillColor=#FFFFFF;gradientColor=none;" parent="1" vertex="1">
          <mxGeometry x="871.45" y="62.93000000000012" width="21.57" height="21.57" as="geometry" />
        </mxCell>
        <mxCell id="6pGJE98MVWuig045qVBl-7" value="" style="ellipse;whiteSpace=wrap;html=1;aspect=fixed;rounded=0;shadow=0;glass=0;sketch=0;fillStyle=auto;strokeColor=#000000;strokeWidth=1;fontFamily=Times New Roman;fontSize=20;fillColor=#FFFFFF;gradientColor=none;" parent="1" vertex="1">
          <mxGeometry x="871.45" y="98.73" width="24.34" height="24.34" as="geometry" />
        </mxCell>
        <mxCell id="6pGJE98MVWuig045qVBl-8" value="" style="ellipse;whiteSpace=wrap;html=1;aspect=fixed;rounded=0;shadow=0;glass=0;sketch=0;fillStyle=auto;strokeColor=#000000;strokeWidth=1;fontFamily=Times New Roman;fontSize=20;fillColor=#FFFFFF;gradientColor=none;" parent="1" vertex="1">
          <mxGeometry x="871.45" y="137.18000000000006" width="21.57" height="21.57" as="geometry" />
        </mxCell>
        <mxCell id="6pGJE98MVWuig045qVBl-9" value="" style="ellipse;whiteSpace=wrap;html=1;aspect=fixed;rounded=0;shadow=0;glass=0;sketch=0;fillStyle=auto;strokeColor=#000000;strokeWidth=1;fontFamily=Times New Roman;fontSize=20;fillColor=#FFFFFF;gradientColor=none;" parent="1" vertex="1">
          <mxGeometry x="871.45" y="174.11000000000013" width="21.57" height="21.57" as="geometry" />
        </mxCell>
        <mxCell id="6pGJE98MVWuig045qVBl-10" value="" style="endArrow=classic;html=1;rounded=0;strokeWidth=2;fontFamily=Times New Roman;fontSize=20;entryX=0;entryY=0.5;entryDx=0;entryDy=0;" parent="1" edge="1">
          <mxGeometry width="50" height="50" relative="1" as="geometry">
            <mxPoint x="905.24" y="100.77000000000015" as="sourcePoint" />
            <mxPoint x="975.2200000000014" y="100.35500000000091" as="targetPoint" />
          </mxGeometry>
        </mxCell>
        <mxCell id="6pGJE98MVWuig045qVBl-11" value="" style="endArrow=none;html=1;rounded=0;strokeWidth=2;fontFamily=Times New Roman;fontSize=20;exitX=0;exitY=0.5;exitDx=0;exitDy=0;" parent="1" edge="1">
          <mxGeometry width="50" height="50" relative="1" as="geometry">
            <mxPoint x="975.2200000000014" y="100.35500000000091" as="sourcePoint" />
            <mxPoint x="905.24" y="7.770000000000152" as="targetPoint" />
          </mxGeometry>
        </mxCell>
        <mxCell id="6pGJE98MVWuig045qVBl-12" value="" style="endArrow=none;html=1;rounded=0;strokeWidth=2;fontFamily=Times New Roman;fontSize=20;entryX=0;entryY=0.5;entryDx=0;entryDy=0;" parent="1" edge="1">
          <mxGeometry width="50" height="50" relative="1" as="geometry">
            <mxPoint x="905.24" y="215.7700000000002" as="sourcePoint" />
            <mxPoint x="975.2200000000014" y="100.35500000000091" as="targetPoint" />
          </mxGeometry>
        </mxCell>
        <mxCell id="6pGJE98MVWuig045qVBl-13" value="" style="endArrow=none;html=1;rounded=0;strokeWidth=2;fontFamily=Times New Roman;fontSize=20;entryX=0;entryY=0.5;entryDx=0;entryDy=0;" parent="1" edge="1">
          <mxGeometry width="50" height="50" relative="1" as="geometry">
            <mxPoint x="905.24" y="51.77000000000015" as="sourcePoint" />
            <mxPoint x="975.2200000000014" y="100.35500000000091" as="targetPoint" />
          </mxGeometry>
        </mxCell>
        <mxCell id="6pGJE98MVWuig045qVBl-14" value="" style="endArrow=none;html=1;rounded=0;strokeWidth=2;fontFamily=Times New Roman;fontSize=20;entryX=0;entryY=0.5;entryDx=0;entryDy=0;" parent="1" edge="1">
          <mxGeometry width="50" height="50" relative="1" as="geometry">
            <mxPoint x="905.24" y="164.7700000000002" as="sourcePoint" />
            <mxPoint x="975.2200000000014" y="100.35500000000091" as="targetPoint" />
          </mxGeometry>
        </mxCell>
        <mxCell id="6pGJE98MVWuig045qVBl-15" value="" style="endArrow=none;html=1;rounded=0;strokeWidth=2;fontFamily=Times New Roman;fontSize=20;fontColor=#000000;entryX=0;entryY=0.5;entryDx=0;entryDy=0;" parent="1" edge="1">
          <mxGeometry width="50" height="50" relative="1" as="geometry">
            <mxPoint x="905.24" y="130.77000000000015" as="sourcePoint" />
            <mxPoint x="975.2200000000014" y="100.35500000000091" as="targetPoint" />
          </mxGeometry>
        </mxCell>
        <mxCell id="6pGJE98MVWuig045qVBl-16" value="" style="endArrow=none;html=1;rounded=0;strokeWidth=2;fontFamily=Times New Roman;fontSize=20;fontColor=#000000;entryX=0;entryY=0.5;entryDx=0;entryDy=0;exitX=0.186;exitY=0.414;exitDx=0;exitDy=0;exitPerimeter=0;" parent="1" edge="1">
          <mxGeometry width="50" height="50" relative="1" as="geometry">
            <mxPoint x="905.0539999999999" y="75.83270000000022" as="sourcePoint" />
            <mxPoint x="975.2200000000014" y="100.35500000000091" as="targetPoint" />
          </mxGeometry>
        </mxCell>
        <mxCell id="6pGJE98MVWuig045qVBl-17" value="&lt;font style=&quot;font-size: 19px;&quot;&gt;Dense Layer (2 Units)&lt;/font&gt;" style="text;html=1;strokeColor=none;fillColor=none;align=center;verticalAlign=middle;whiteSpace=wrap;rounded=0;shadow=0;glass=0;sketch=0;fillStyle=auto;strokeWidth=1;fontFamily=Times New Roman;fontSize=20;horizontal=1;rotation=270;fontStyle=0" parent="1" vertex="1">
          <mxGeometry x="735" y="95.89999999999999" width="206.38" height="30" as="geometry" />
        </mxCell>
        <mxCell id="6pGJE98MVWuig045qVBl-18" style="edgeStyle=orthogonalEdgeStyle;rounded=0;orthogonalLoop=1;jettySize=auto;html=1;exitX=1;exitY=0.5;exitDx=0;exitDy=0;entryX=0.5;entryY=0;entryDx=0;entryDy=0;strokeWidth=3;" parent="1" edge="1">
          <mxGeometry relative="1" as="geometry">
            <mxPoint x="782" y="105" as="sourcePoint" />
            <mxPoint x="824" y="105" as="targetPoint" />
          </mxGeometry>
        </mxCell>
        <mxCell id="6pGJE98MVWuig045qVBl-19" style="edgeStyle=orthogonalEdgeStyle;rounded=0;orthogonalLoop=1;jettySize=auto;html=1;exitX=1;exitY=0.5;exitDx=0;exitDy=0;strokeWidth=3;" parent="1" edge="1">
          <mxGeometry relative="1" as="geometry">
            <mxPoint x="139" y="114.89" as="sourcePoint" />
            <mxPoint x="178" y="114.89" as="targetPoint" />
          </mxGeometry>
        </mxCell>
        <mxCell id="6pGJE98MVWuig045qVBl-21" value="&lt;font style=&quot;font-size: 17px;&quot;&gt;Output Layer&lt;/font&gt;" style="rounded=1;whiteSpace=wrap;html=1;fillColor=#FFFF00;strokeWidth=2;" parent="1" vertex="1">
          <mxGeometry x="1034" y="78.9" width="140.38" height="47" as="geometry" />
        </mxCell>
        <mxCell id="6pGJE98MVWuig045qVBl-24" style="edgeStyle=orthogonalEdgeStyle;rounded=0;orthogonalLoop=1;jettySize=auto;html=1;exitX=1;exitY=0.5;exitDx=0;exitDy=0;strokeWidth=3;" parent="1" edge="1">
          <mxGeometry relative="1" as="geometry">
            <mxPoint x="984" y="101.25" as="sourcePoint" />
            <mxPoint x="1026.88" y="101" as="targetPoint" />
          </mxGeometry>
        </mxCell>
      </root>
    </mxGraphModel>
  </diagram>
</mxfile>
